<mxfile host="Electron" modified="2024-06-02T22:05:12.835Z" agent="Mozilla/5.0 (Windows NT 10.0; Win64; x64) AppleWebKit/537.36 (KHTML, like Gecko) draw.io/22.1.2 Chrome/114.0.5735.289 Electron/25.9.4 Safari/537.36" etag="aVyMu-6HdzdWMz7PVjmm" version="22.1.2" type="device">
  <diagram name="Seite-1" id="d4o2jSI_7tVIvN0celH4">
    <mxGraphModel dx="1418" dy="820" grid="1" gridSize="10" guides="1" tooltips="1" connect="1" arrows="1" fold="1" page="1" pageScale="1" pageWidth="827" pageHeight="1169" math="0" shadow="0">
      <root>
        <mxCell id="0" />
        <mxCell id="1" parent="0" />
        <mxCell id="3eoQAkn6epGOs1ZRguan-3" style="edgeStyle=orthogonalEdgeStyle;rounded=0;orthogonalLoop=1;jettySize=auto;html=1;exitX=0.5;exitY=1;exitDx=0;exitDy=0;entryX=0.5;entryY=0;entryDx=0;entryDy=0;" edge="1" parent="1" source="3eoQAkn6epGOs1ZRguan-1" target="3eoQAkn6epGOs1ZRguan-2">
          <mxGeometry relative="1" as="geometry" />
        </mxCell>
        <mxCell id="3eoQAkn6epGOs1ZRguan-1" value="Speicher die zu untersuchend Seite als .html um später den Quellcode zu prüfen" style="rounded=0;whiteSpace=wrap;html=1;" vertex="1" parent="1">
          <mxGeometry x="360" y="110" width="120" height="90" as="geometry" />
        </mxCell>
        <mxCell id="3eoQAkn6epGOs1ZRguan-5" style="edgeStyle=orthogonalEdgeStyle;rounded=0;orthogonalLoop=1;jettySize=auto;html=1;exitX=0.5;exitY=1;exitDx=0;exitDy=0;entryX=0.5;entryY=0;entryDx=0;entryDy=0;" edge="1" parent="1" source="3eoQAkn6epGOs1ZRguan-2" target="3eoQAkn6epGOs1ZRguan-4">
          <mxGeometry relative="1" as="geometry" />
        </mxCell>
        <mxCell id="3eoQAkn6epGOs1ZRguan-2" value="Quellcode anschauen und nach Follwing-Span suchen&lt;br&gt;&lt;br&gt;&lt;div style=&quot;color: rgb(204, 204, 204); background-color: rgb(31, 31, 31); font-family: Consolas, &amp;quot;Courier New&amp;quot;, monospace; font-size: 14px; line-height: 19px;&quot;&gt;&amp;lt;&lt;span style=&quot;color: #d7ba7d;&quot;&gt;span&lt;/span&gt;&lt;span style=&quot;color: #d4d4d4;&quot;&gt; class=&quot;&lt;/span&gt;&lt;span style=&quot;color: #569cd6;&quot;&gt;html-span&lt;/span&gt;&lt;span style=&quot;color: #d4d4d4;&quot;&gt; xdj266r x11i5rnm xat24cr x1mh8g0r xexx8yu x4uap5 x18d9i69 xkhd6sd x1hl2dhg x16tdsg8 x1vvkbs&quot;&amp;gt;503&amp;lt;/&lt;/span&gt;&lt;span style=&quot;color: #d7ba7d;&quot;&gt;span&lt;/span&gt;&lt;span style=&quot;color: #d4d4d4;&quot;&gt;&amp;gt;&lt;/span&gt;&lt;/div&gt;" style="rounded=0;whiteSpace=wrap;html=1;" vertex="1" parent="1">
          <mxGeometry x="330" y="240" width="180" height="190" as="geometry" />
        </mxCell>
        <mxCell id="3eoQAkn6epGOs1ZRguan-9" style="edgeStyle=orthogonalEdgeStyle;rounded=0;orthogonalLoop=1;jettySize=auto;html=1;exitX=0.5;exitY=1;exitDx=0;exitDy=0;entryX=0.5;entryY=0;entryDx=0;entryDy=0;" edge="1" parent="1" source="3eoQAkn6epGOs1ZRguan-4" target="3eoQAkn6epGOs1ZRguan-8">
          <mxGeometry relative="1" as="geometry" />
        </mxCell>
        <mxCell id="3eoQAkn6epGOs1ZRguan-4" value="Die Anzahl Nummer von Following &quot;rein&quot; speichern" style="rounded=0;whiteSpace=wrap;html=1;" vertex="1" parent="1">
          <mxGeometry x="360" y="480" width="120" height="60" as="geometry" />
        </mxCell>
        <mxCell id="3eoQAkn6epGOs1ZRguan-7" style="edgeStyle=orthogonalEdgeStyle;rounded=0;orthogonalLoop=1;jettySize=auto;html=1;exitX=0.5;exitY=1;exitDx=0;exitDy=0;entryX=0.5;entryY=0;entryDx=0;entryDy=0;" edge="1" parent="1" source="3eoQAkn6epGOs1ZRguan-6" target="3eoQAkn6epGOs1ZRguan-1">
          <mxGeometry relative="1" as="geometry" />
        </mxCell>
        <mxCell id="3eoQAkn6epGOs1ZRguan-6" value="DIe URL zur untersuchenden Webseite einfügen (z.B.&amp;nbsp;https://www.instagram.com/lukamodric10/)" style="rounded=0;whiteSpace=wrap;html=1;" vertex="1" parent="1">
          <mxGeometry x="290" width="260" height="60" as="geometry" />
        </mxCell>
        <mxCell id="3eoQAkn6epGOs1ZRguan-8" value="Das Resultat wird mit dem Username wiedergegeben&lt;br&gt;&lt;br&gt;lukamodric10: 503" style="rounded=0;whiteSpace=wrap;html=1;" vertex="1" parent="1">
          <mxGeometry x="360" y="585" width="120" height="85" as="geometry" />
        </mxCell>
        <mxCell id="3eoQAkn6epGOs1ZRguan-10" value="&lt;font style=&quot;font-size: 18px;&quot;&gt;meine kleine Idee zur Funktionsweise der Instagram-Scraper-App&lt;/font&gt;" style="text;html=1;strokeColor=none;fillColor=none;align=center;verticalAlign=middle;whiteSpace=wrap;rounded=0;" vertex="1" parent="1">
          <mxGeometry x="40" y="20" width="200" height="110" as="geometry" />
        </mxCell>
      </root>
    </mxGraphModel>
  </diagram>
</mxfile>
